<?xml version="1.0" encoding="utf-8"?>
<!-- Generator: Adobe Illustrator 22.0.1, SVG Export Plug-In . SVG Version: 6.00 Build 0)  -->
<svg version="1.1" id="Layer_1" xmlns="http://www.w3.org/2000/svg" xmlns:xlink="http://www.w3.org/1999/xlink" x="0px" y="0px"
	 viewBox="0 0 640 480" enable-background="new 0 0 640 480" xml:space="preserve">
<g>
	<path d="M21,48.6v168.9h168.9V48.6H21z M138.7,167.6c-3.1,4.2-7.5,7.5-12.3,9.4c-6.1,2.3-12.6,3.4-19.1,3.3H69.2V85.5h35.6
		c10.5,0,18.6,2.1,24.3,6.3c5.7,4.2,8.6,10.3,8.6,18.2c0.2,4.2-1,8.2-3.1,11.7c-2.3,3.4-5.4,6.1-9.2,7.8c5.2,1.5,9.6,4.6,12.8,8.8
		c3.1,4.2,4.6,9.4,4.4,14.7C143.1,158.3,141.6,163.4,138.7,167.6L138.7,167.6z M114.6,121.3c2.7-2.3,4.2-5.6,4-9.2
		c0-7.5-5.2-11.3-15.3-11.3H88.7v23.5h14.5C108.1,124.6,111.9,123.4,114.6,121.3z M105.6,139.5h-17v25.7h16.8
		c5.7,0,10.1-1.1,13.2-3.3c3.1-2.1,4.8-5.6,4.6-9.4C123.2,143.7,117.3,139.3,105.6,139.5L105.6,139.5z M231.9,48.6v168.9h168.9V48.6
		H231.9L231.9,48.6z M349.7,167.6c-3.1,4.2-7.5,7.5-12.3,9.4c-6.1,2.3-12.6,3.4-19.3,3.3h-37.9V85.5h35.6c10.5,0,18.6,2.1,24.5,6.3
		c5.7,4.2,8.6,10.3,8.6,18.2c0.2,4.2-1,8.2-3.1,11.7c-2.3,3.4-5.4,6.1-9.2,7.8c5.2,1.5,9.6,4.6,12.8,8.8c3.1,4.2,4.6,9.4,4.4,14.7
		C354.1,158.3,352.5,163.4,349.7,167.6L349.7,167.6z M325.6,121.3c2.7-2.3,4.2-5.6,4-9.2c0-7.5-5.2-11.3-15.3-11.3h-14.5v23.5h14.5
		C319,124.6,322.9,123.4,325.6,121.3L325.6,121.3z M316.6,139.5h-17v25.7h16.8c5.7,0,10.1-1.1,13.2-3.3c3.1-2.1,4.8-5.6,4.6-9.4
		C334.2,143.7,328.4,139.3,316.6,139.5L316.6,139.5z M442.9,217.4h168.9V48.6H442.9L442.9,217.4L442.9,217.4z M564.1,174.3
		c-4.2,2.3-9,4-13.6,5.2c-5.4,1.3-10.9,1.9-16.3,1.9c-6.9,0.2-14-1-20.5-3.3c-5.7-2.1-11.1-5.4-15.5-9.6c-4.2-4.4-7.7-9.6-9.6-15.3
		c-2.3-6.5-3.4-13.4-3.4-20.3c-0.2-6.9,1.1-13.6,3.4-19.9c2.3-5.7,5.6-10.9,10-15.3c4.6-4.4,10-7.7,15.7-9.8
		c6.5-2.3,13.6-3.4,20.5-3.4c5,0,10,0.6,14.9,1.5c4.6,1,9,2.7,13,4.8v18.6c-3.6-2.5-7.7-4.2-11.9-5.6c-4.4-1.3-9-1.9-13.6-1.9
		c-5.7-0.2-11.5,1.1-16.7,3.6c-4.6,2.3-8.2,6.1-10.5,10.5c-2.7,5.2-3.8,10.9-3.6,16.8c-0.2,5.7,1,11.7,3.6,16.8
		c2.3,4.6,5.9,8.2,10.3,10.5c5.2,2.5,10.7,3.8,16.5,3.6c9.6,0,19-2.7,27.2-7.7L564.1,174.3L564.1,174.3z"/>
	<g>
		<polygon fill="#EB0000" points="210.1,402 283.8,402 283.8,428.4 178.3,428.4 178.3,280.6 280,280.6 280,307 210.1,307 
			210.1,339.2 272.1,339.2 272.1,365.6 210.1,365.6 		"/>
		<path fill="#EB0000" d="M463.8,280.6h34.1c-5.7,24.9-11.9,49.8-18.4,74.7c-6.5,24.5-13.2,48.8-20.3,73.1h-33.7
			c-9.4-33.1-18.2-66.6-26.8-99.9c-8.2,33.5-17,66.8-26.4,99.9h-33.7c-7.1-24.3-13.8-48.6-20.3-73.1c-6.5-24.7-12.6-49.6-18.4-74.7
			h34.7c3.4,19.1,7.1,38.3,10.9,57.4c3.8,19.1,7.8,37.9,12.3,56.5c9.2-35.8,18-71.6,26.2-107.6h31c8.2,35.2,16.8,70.3,26,105.3
			c4.2-18.4,8.2-36.9,12.1-55.3C456.9,318.1,460.3,299.3,463.8,280.6z"/>
		<path fill="#EB0000" d="M619,384.9c0,9.8-2.5,18.2-7.3,25.1c-4.8,6.9-11.9,12.3-20.9,15.9c-9.2,3.6-20.1,5.6-32.9,5.6
			c-8,0-16.3-1-24.1-2.7c-8-1.7-15.7-4.6-22.8-8.4v-28.5c14.2,8.8,30.2,13.4,46.9,13.4c9.4,0,16.5-1.5,21.4-4.8
			c4.6-2.7,7.5-7.8,7.3-13.2c0-4.2-1.1-7.7-3.6-10c-2.7-2.7-5.9-4.6-9.6-5.7c-4.4-1.5-8.8-2.9-13.4-4c-7.3-1.7-14.5-3.8-21.4-6.7
			c-5.6-2.1-10.9-5.2-15.7-8.8c-4.2-3.3-7.5-7.5-9.8-12.3c-2.3-5.4-3.4-11.3-3.3-17c0-9.4,2.3-17.4,7.1-24.1
			c5.2-7.1,12.1-12.4,20.1-15.5c8.6-3.6,19-5.6,31-5.6c7.8,0,15.5,1,23.2,2.7c7.1,1.5,14,4,20.5,7.3v28.1
			c-6.3-3.8-13.4-6.7-20.5-8.6c-7.5-2.1-15.3-3.1-23-3.1c-8.4,0-14.9,1.5-19.5,4.4c-4.4,2.5-7.1,7.3-6.9,12.4
			c-0.2,3.4,1,6.7,3.3,9.2c2.7,2.5,5.9,4.4,9.4,5.6c4,1.5,8.8,2.9,14.4,4.2c7.1,1.7,13.6,3.8,19.5,5.9c5.7,1.9,11.1,4.8,16.1,8.2
			c4.6,3.3,8.2,7.7,10.7,12.6C617.7,371.3,619,377.5,619,384.9z"/>
		<path fill="#EB0000" d="M149,280.6v147.8h-32.2c-10.7-17.2-21.6-34.5-32.5-51.7c-10.7-16.8-21.6-33.7-32.5-50.3v102H21V280.6h32.2
			c11.1,16.7,22,33.3,32.9,50.2c10.9,16.8,21.6,33.9,32.4,50.9V280.6H149z"/>
	</g>
</g>
<rect fill="none" width="640" height="480"/>
</svg>
