<?xml version="1.0" encoding="utf-8"?>
<!-- Generator: Adobe Illustrator 16.0.0, SVG Export Plug-In . SVG Version: 6.00 Build 0)  -->
<!DOCTYPE svg PUBLIC "-//W3C//DTD SVG 1.0//EN" "http://www.w3.org/TR/2001/REC-SVG-20010904/DTD/svg10.dtd">
<svg version="1.0" id="Layer_1" xmlns="http://www.w3.org/2000/svg" xmlns:xlink="http://www.w3.org/1999/xlink" x="0px" y="0px"
	 width="800px" height="800px" viewBox="0 0 800 800" enable-background="new 0 0 800 800" xml:space="preserve">
<g>
	<rect x="138.629" y="368.909" fill="#130002" width="35.376" height="108.957"/>
	<rect x="181.329" y="326.307" fill="#130002" width="35.381" height="151.56"/>
	<rect x="224.034" y="326.307" fill="#130002" width="35.381" height="151.56"/>
	<path fill="#130002" d="M604.813,368.916h35.382v11.233c5.235-8.478,12.98-11.868,23.655-12.295v37.514h-4.186
		c-12.563,0-19.47,7.211-19.47,20.567v51.932h-35.382V368.916z"/>
	<path fill="#130002" d="M135.805,341.187c0-11.471,9.187-20.773,20.513-20.773c11.333,0,20.521,9.303,20.521,20.773
		s-9.188,20.773-20.521,20.773C144.991,361.96,135.805,352.657,135.805,341.187"/>
	<path fill="#130002" d="M538.795,443.687c-11.334,0-20.514-9.308-20.514-20.777c0-11.472,9.18-20.774,20.514-20.774
		c11.331,0,20.515,9.303,20.515,20.774C559.31,434.379,550.126,443.687,538.795,443.687 M597.48,369.096h-35.38v8.113
		c-4.969-5.489-16.535-10.028-25.331-10.028c-30.869,0-51.691,23.802-51.691,57.296c0,33.489,23.428,55.11,52.106,55.11
		c8.795,0,18.426-2.971,24.916-7.844v6.148h35.38v-47.688c0-1.955-0.011-3.864-0.051-5.727c0.04-1.862,0.051-3.771,0.051-5.727
		V369.096z"/>
	<path fill="#130002" d="M721.534,444.419c-11.331,0-20.515-9.308-20.515-20.778s9.184-20.773,20.515-20.773
		c11.334,0,20.514,9.303,20.514,20.773S732.868,444.419,721.534,444.419 M742.366,326.297v48.115
		c-6.911-4.873-14.862-6.99-24.5-6.99c-29.516,0-52.544,23.103-52.544,56.379c0,31.367,22.191,55.532,49.193,55.532
		c11.102,0,20.1-3.604,28.478-11.44v9.959h34.754V326.297H742.366z"/>
	<path fill="#130002" d="M323.295,444.687c-11.332,0-20.52-9.304-20.52-20.78c0-11.464,9.188-20.768,20.52-20.768
		c11.327,0,20.515,9.304,20.515,20.768C343.81,435.383,334.622,444.687,323.295,444.687 M327.062,367.452
		c-9.632,0-17.591,2.122-24.499,6.989v-48.115h-35.381v151.56h34.752v-9.965c8.38,7.844,17.378,11.448,28.478,11.448
		c27.003,0,49.194-24.166,49.194-55.532C379.605,390.555,356.577,367.452,327.062,367.452"/>
	<path fill="#130002" d="M78.367,444.687c-11.333,0-20.521-9.304-20.521-20.78c0-11.464,9.188-20.768,20.521-20.768
		c11.326,0,20.515,9.304,20.515,20.768C98.882,435.383,89.693,444.687,78.367,444.687 M82.133,367.452
		c-9.631,0-17.59,2.122-24.499,6.989v-48.115H22.253v151.56h34.753v-9.965c8.379,7.844,17.376,11.448,28.478,11.448
		c27.003,0,49.194-24.166,49.194-55.532C134.678,390.555,111.654,367.452,82.133,367.452"/>
	<path fill="#130002" d="M432.476,443.026c-11.332,0-20.514-9.302-20.514-20.777c0-11.466,9.182-20.774,20.514-20.774
		c11.333,0,20.513,9.309,20.513,20.774C452.988,433.725,443.809,443.026,432.476,443.026 M432.476,366.526
		c-30.565,0-54.853,25.439-54.853,56.38c0,30.952,24.072,56.391,54.853,56.391c30.987,0,54.851-25.652,54.851-56.391
		C487.326,392.18,463.04,366.526,432.476,366.526"/>
</g>
</svg>
