<?xml version="1.0" encoding="utf-8"?>
<!-- Generator: Adobe Illustrator 16.0.0, SVG Export Plug-In . SVG Version: 6.00 Build 0)  -->
<!DOCTYPE svg PUBLIC "-//W3C//DTD SVG 1.0//EN" "http://www.w3.org/TR/2001/REC-SVG-20010904/DTD/svg10.dtd">
<svg version="1.0" id="Layer_1" xmlns="http://www.w3.org/2000/svg" xmlns:xlink="http://www.w3.org/1999/xlink" x="0px" y="0px"
	 width="800px" height="800px" viewBox="0 0 800 800" enable-background="new 0 0 800 800" xml:space="preserve">
<g>
	<path fill="#185F7C" d="M267.365,448.107c0,14.996,9.292,21.523,21.526,25.994l13.265,4.744c8.202,3.123,12.878,5.92,12.878,13.041
		c0,8.18-7.343,11.879-17.801,11.879c-10.732,0-20.752-3.861-29.096-10.543v16.213c6.416,4.447,16.844,7.975,29.096,7.975
		c18.659,0,32.878-9.18,32.878-25.803c0-13.209-6.577-21.25-20.901-26.424l-14.782-5.34c-7.636-2.689-11.979-5.359-11.979-12.053
		c0-7.404,6.912-10.957,16.157-10.957c10.743,0,19.098,4,26.733,9.813v-15.914c-7.343-4.729-16.743-7.393-27.059-7.393
		C281.443,423.34,267.365,432.061,267.365,448.107"/>
	<rect x="370.421" y="424.891" fill="#185F7C" width="15.56" height="91.125"/>
	<rect x="89.938" y="424.891" fill="#185F7C" width="15.578" height="91.125"/>
	<path fill="#185F7C" d="M447.014,438.539h19.032c19.247,0,29.542,12.291,29.542,31.891c0,19.467-10.295,31.799-29.542,31.799
		h-19.032V438.539z M431.48,424.891v91.125h35.15c27.055,0,44.55-17.816,44.55-45.586c0-27.729-17.495-45.539-44.55-45.539H431.48z"
		/>
	<polygon fill="#185F7C" points="544.059,424.891 544.059,516.016 599.647,516.016 599.647,502.229 559.288,502.229 
		559.288,473.957 595.486,473.957 595.486,460.463 559.288,460.463 559.288,438.539 599.647,438.539 599.647,424.891 	"/>
	<path fill="#185F7C" d="M661.649,438.26h17.429c10.317,0,16.135,5.502,16.135,13.947c0,8.447-5.817,13.949-16.135,13.949h-17.429
		V438.26z M646.14,424.891v91.125h15.51v-36.973h11.039l31.924,36.973h17.645l-32.975-37.545
		c14.496-2.248,21.297-11.01,21.297-26.264c0-17.84-12.255-27.316-31.202-27.316H646.14z"/>
	<path fill="#185F7C" d="M238.375,307.824c0,15.235,9.334,21.869,21.679,26.394l13.397,4.825
		c8.278,3.168,12.942,6.032,12.942,13.268c0,8.297-7.373,12.067-17.915,12.067c-10.836,0-20.921-3.919-29.346-10.705v16.433
		c6.467,4.527,17.005,8.148,29.346,8.148c18.824,0,33.121-9.353,33.121-26.243c0-13.422-6.622-21.562-21.074-26.843l-14.901-5.43
		c-7.677-2.712-12.046-5.43-12.046-12.213c0-7.543,6.926-11.162,16.261-11.162c10.84,0,19.265,4.068,26.944,9.952v-16.136
		c-7.376-4.825-16.862-7.542-27.245-7.542C252.522,282.638,238.375,291.537,238.375,307.824"/>
	<path fill="#185F7C" d="M708.851,307.764c0,15.229,9.328,21.867,21.68,26.394l13.393,4.822c8.279,3.166,12.946,6.038,12.946,13.271
		c0,8.294-7.374,12.065-17.912,12.065c-10.835,0-20.927-3.92-29.354-10.708v16.439c6.474,4.523,17.005,8.145,29.354,8.145
		c18.812,0,33.118-9.353,33.118-26.242c0-13.42-6.629-21.565-21.076-26.846l-14.903-5.424c-7.677-2.718-12.039-5.43-12.039-12.22
		c0-7.54,6.926-11.158,16.249-11.158c10.848,0,19.276,4.071,26.954,9.951v-16.132c-7.379-4.832-16.862-7.543-27.253-7.543
		C722.995,282.578,708.851,291.474,708.851,307.764"/>
	<path fill="#185F7C" d="M614.298,307.764c0,15.229,9.335,21.867,21.685,26.394l13.394,4.822
		c8.279,3.166,12.947,6.038,12.947,13.271c0,8.294-7.386,12.065-17.912,12.065c-10.837,0-20.922-3.92-29.356-10.708v16.439
		c6.468,4.523,17.007,8.145,29.356,8.145c18.812,0,33.117-9.353,33.117-26.242c0-13.42-6.629-21.565-21.077-26.846l-14.901-5.424
		c-7.677-2.718-12.041-5.43-12.041-12.22c0-7.54,6.921-11.158,16.249-11.158c10.849,0,19.277,4.071,26.953,9.951v-16.132
		c-7.379-4.832-16.867-7.543-27.245-7.543C628.448,282.578,614.298,291.474,614.298,307.764"/>
	<path fill="#185F7C" d="M522.618,284.149v92.594h55.988v-14.007h-40.651v-28.727h36.455v-13.71h-36.455v-22.283h40.651v-13.867
		H522.618z"/>
	<path fill="#185F7C" d="M43.127,336.027h19.87c10.541,0,16.257,5.128,16.257,13.572c0,8.295-5.716,13.573-16.257,13.573h-19.87
		V336.027z M43.127,297.727h17.011c10.688,0,16.41,3.765,16.41,12.512c0,8.747-5.722,12.821-16.41,12.821H43.127V297.727z
		 M27.925,284.149v92.598h35.376c19.268,0,31.312-9.201,31.312-26.543c0-9.805-6.322-18.397-15.054-21.265
		c6.774-2.414,12.041-9.653,12.041-19.607c0-16.585-12.041-25.183-31.312-25.183H27.925z"/>
	<path fill="#185F7C" d="M341.887,376.743h15.653v-92.598h-15.653V376.743z"/>
	<path fill="#185F7C" d="M186.607,284.146v53.991c0,17.796-7.525,26.09-21.375,26.09c-13.85,0-21.375-8.294-21.375-26.09v-53.991
		H128.2V339.8c0,25.481,15.053,38.455,37.033,38.455c22.129,0,37.033-12.974,37.033-38.31v-55.8H186.607z"/>
	<polygon fill="#185F7C" points="465.736,284.146 465.736,343.35 402.205,282.706 402.205,376.743 417.289,376.743 417.289,316.512 
		480.78,378.186 480.78,284.146 	"/>
	<polygon fill="#185F7C" points="150.128,516.01 165.102,516.01 165.102,456.744 228.129,517.422 228.129,424.885 213.194,424.885 
		213.194,483.137 150.128,423.479 	"/>
</g>
</svg>
