<?xml version="1.0" encoding="utf-8"?>
<!-- Generator: Adobe Illustrator 16.0.0, SVG Export Plug-In . SVG Version: 6.00 Build 0)  -->
<!DOCTYPE svg PUBLIC "-//W3C//DTD SVG 1.0//EN" "http://www.w3.org/TR/2001/REC-SVG-20010904/DTD/svg10.dtd">
<svg version="1.0" id="Layer_1" xmlns="http://www.w3.org/2000/svg" xmlns:xlink="http://www.w3.org/1999/xlink" x="0px" y="0px"
	 width="800px" height="800px" viewBox="0 0 800 800" enable-background="new 0 0 800 800" xml:space="preserve">
<g>
	<path id="path22762" d="M121.033,340.934h-3.151c-1.158-20.111-2.299-43.405-22.708-53.749c-8.342-4.021-16.318-3.376-28.528-3.302
		l0.074,112.381c8.917,0,16.675-4.174,20.986-11.359c5.747-9.48,6.616-20.696,6.616-32.19h3.439v90.545h-4.239
		c0-16.385,0.262-32.449-15.765-41.645c-3.198-0.862-7.508-1.759-11.277-1.688v116.61c20.119,0.801,29.845,0,38.762-11.195
		c5.451-6.617,9.195-14.088,10.918-22.143c2.308-8.045,2.874-16.666,2.874-25.574h3.448v62.658H27.347v-3.449h13.792V283.45
		l-16.34,0.074v-3.807h96.247v61.219"/>
	<path id="path22764" d="M521.652,284.563h-14.689l-0.111,231.797c13.365,0.074,22.02,1.041,30.361-5.271
		c16.664-13.521,20.119-33.922,20.406-54.898h3.16v64.084h-96.684v-3.799h17.832l0.092-0.51V284.384h-15.723v-4.346h55.348v4.524"/>
	<path id="path22766" d="M774.324,341.221h-3.438c-0.576-21.557-3.17-46.565-26.156-54.61c-10.201-2.981-15.229-2.083-24.711-2.011
		l-0.109,111.225c10.857,0.092,17.318-2.076,21.666-11.493c4.451-8.191,6.033-20.123,6.033-31.617h3.447v91.117h-3.447
		c-0.285-16.393-1.141-36.217-18.102-42.826c-3.234-0.971-6.33-1.15-9.777-1.15v116.681c18.398,0.623,33.922-3.15,43.404-18.674
		c6.609-11.791,8.619-25.582,8.918-39.949h3.148v62.08l-94.775,0.076v-3.533h15.877v-232.01l-16.521,0.074v-4.813h94.551v61.437"/>
	<path id="path22768" d="M308.113,284.204h-15.276l-0.092,232.812c11.916-0.02,22.591,0.682,30.349-6.502
		c13.218-10.641,16.378-26.443,18.389-42.256l0.587-11.789h3.448v63.805h-94.563v-3.258h16.488l0.11-232.812h-15.73v-4.211h56.298
		v4.211"/>
	<path id="path22770" fill="#FFFFFF" d="M765.648,519.225c4.762,0,8.803-3.682,8.803-8.711c0-4.984-4.041-8.662-8.803-8.662
		c-4.758,0-8.799,3.678-8.799,8.662C756.85,515.543,760.891,519.225,765.648,519.225z M758.602,510.514
		c0-4.131,3.098-7.227,7.047-7.227c3.953,0,7.051,3.096,7.051,7.227c0,4.176-3.098,7.229-7.051,7.229
		C761.699,517.742,758.602,514.689,758.602,510.514z M763.811,511.188h1.75l2.65,4.355h1.705l-2.83-4.4
		c1.438-0.229,2.605-0.986,2.605-2.781c0-1.979-1.213-2.832-3.547-2.832h-3.816v10.014h1.482V511.188L763.811,511.188z
		 M763.811,509.887v-3.098h2.111c1.031,0,2.152,0.229,2.152,1.482c0,1.525-1.121,1.615-2.426,1.615H763.811z"/>
</g>
</svg>
