<?xml version="1.0" encoding="utf-8"?>
<!-- Generator: Adobe Illustrator 16.0.0, SVG Export Plug-In . SVG Version: 6.00 Build 0)  -->
<!DOCTYPE svg PUBLIC "-//W3C//DTD SVG 1.0//EN" "http://www.w3.org/TR/2001/REC-SVG-20010904/DTD/svg10.dtd">
<svg version="1.0" id="Layer_1" xmlns="http://www.w3.org/2000/svg" xmlns:xlink="http://www.w3.org/1999/xlink" x="0px" y="0px"
	 width="800px" height="800px" viewBox="0 0 800 800" enable-background="new 0 0 800 800" xml:space="preserve">
<g>
	<path fill="#1C2D56" d="M482.533,359.167c-11.978,0-21.587,3.213-31.566,8.098c0.101-28.272,0.425-52.946,1.132-62.272
		l-58.154,11.229v5.234l5.663,0.722c8.108,1.126,11.229,5.876,12.175,16.686c1.848,20.745,1.566,132.066,0,149.914
		c15.664,3.514,32.609,6.23,49.576,6.23c46.143,0,73.914-28.523,73.914-73.643C535.272,385.158,512.729,359.167,482.533,359.167
		 M462.294,485.789c-3.305,0-7.576-0.545-9.924-0.979c-0.924-12.488-1.478-64-1.425-108.984c5.348-1.799,8.925-2.223,13.588-2.223
		c19.1,0,29.806,22.028,29.848,49.881C494.457,458.898,481.218,485.789,462.294,485.789z"/>
	<path fill="#1C2D56" d="M174.541,309.112H21.613v7.343l8.13,1.103c11.674,1.707,16.153,8.941,17.522,25.403
		c2.63,31.555,2.272,87.98,0,115.121c-1.369,16.445-5.848,23.662-17.522,25.371l-8.13,1.096v7.359h98.284v-7.359l-10.326-1.096
		c-11.674-1.709-16.153-8.926-17.511-25.371c-0.946-11.24-1.554-30.131-1.76-52.328l20.261,0.658
		c13.521,0.436,19.195,10.441,22.423,25.289h7.576v-61.849h-7.576c-3.229,14.837-8.902,24.865-22.423,25.299l-20.315,0.646
		c-0.154-29.217,0.402-57.283,1.814-74.141h30.195c23.544,0,36.132,14.956,44.056,41.392l9.066-2.501L174.541,309.112"/>
	<path fill="#1C2D56" d="M224.226,357.685c43.467,0,65.076,29.471,65.076,68.321c0,37.914-24.381,69.002-67.858,69.002
		c-43.458,0-65.057-29.459-65.057-68.328C156.387,388.793,180.757,357.685,224.226,357.685 M221.975,366.108
		c-19.207,0-24.587,25.994-24.587,60.267c0,33.305,8.5,60.197,26.327,60.197c19.206,0,24.577-25.957,24.577-60.197
		C248.291,393.038,239.791,366.108,221.975,366.108z"/>
	<path fill="#1C2D56" d="M545.948,427.539c-0.044-35.931,22.651-69.752,67.468-69.752c36.446,0,53.849,27.021,54.044,62.359h-81.316
		c-0.901,32.076,15.338,55.643,46.426,55.643c13.673,0,21.043-3.391,29.314-9.729l3.805,4.6
		c-9.012,12.488-27.837,24.348-52.826,24.348C573.687,495.008,545.979,467.289,545.948,427.539 M586.437,411.01l40.763-0.846
		c0.206-18.05-2.663-43.845-17.338-43.845C595.101,366.319,586.796,390.7,586.437,411.01z"/>
	<path fill="#1C2D56" d="M770.505,364.788c-9.674-4.447-24.12-7.103-39.283-7.103c-32.705,0-52.544,19.167-52.544,41.527
		c0,23.043,14.936,32.118,35.523,39.458c22.173,7.912,28.021,14.076,28.021,24.314c0,10.566-7.75,20.457-21.643,20.457
		c-16.425,0-28.793-9.643-38.314-36.238l-6.665,1.738l1.177,38.021c10.824,4.381,29.293,8.045,45.934,8.045
		c34.631,0,55.676-16.881,55.676-44.361c0-18.424-8.99-28.51-31.709-37.311c-24.543-9.516-33.042-15.494-33.042-26.87
		c0-11.46,7.554-19.32,18.076-19.32c15.74,0,26.511,9.772,33.587,32.724l6.663-1.712L770.505,364.788"/>
	<path fill="#1C2D56" d="M402.728,361.358c-14.662-8.773-41.403-4.609-54.936,26.532l0.63-30.305l-57.946,11.217v5.234l5.676,0.734
		c8.096,1.134,11.217,5.884,12.173,16.695c1.837,20.734,1.554,57.822,0,75.67c-0.956,10.836-4.077,15.576-12.173,16.695
		l-5.676,0.717v7.35h80.698v-7.35l-10.512-0.717c-8.108-1.119-11.24-5.859-12.195-16.695c-1.435-16.391-1.772-48.988-0.392-70.262
		c3.891-6.445,22.837-11.587,40.447,0.245L402.728,361.358"/>
	<path fill="#1C2D56" d="M482.533,359.167c-11.978,0-21.587,3.213-31.566,8.098c0.101-28.272,0.425-52.946,1.132-62.272
		l-58.154,11.229v5.234l5.663,0.722c8.108,1.126,11.229,5.876,12.175,16.686c1.848,20.745,1.566,132.066,0,149.914
		c15.664,3.514,32.609,6.23,49.576,6.23c46.143,0,73.914-28.523,73.914-73.643C535.272,385.158,512.729,359.167,482.533,359.167
		 M462.294,485.789c-3.305,0-7.576-0.545-9.924-0.979c-0.924-12.488-1.478-64-1.425-108.984c5.348-1.799,8.925-2.223,13.588-2.223
		c19.1,0,29.806,22.028,29.848,49.881C494.457,458.898,481.218,485.789,462.294,485.789z"/>
	<path fill="#1C2D56" d="M174.541,309.112H21.613v7.343l8.13,1.103c11.674,1.707,16.153,8.941,17.522,25.403
		c2.63,31.555,2.272,87.98,0,115.121c-1.369,16.445-5.848,23.662-17.522,25.371l-8.13,1.096v7.359h98.284v-7.359l-10.326-1.096
		c-11.674-1.709-16.153-8.926-17.511-25.371c-0.946-11.24-1.554-30.131-1.76-52.328l20.261,0.658
		c13.521,0.436,19.195,10.441,22.423,25.289h7.576v-61.849h-7.576c-3.229,14.837-8.902,24.865-22.423,25.299l-20.315,0.646
		c-0.154-29.217,0.402-57.283,1.814-74.141h30.195c23.544,0,36.132,14.956,44.056,41.392l9.066-2.501L174.541,309.112"/>
	<path fill="#1C2D56" d="M224.226,357.685c43.467,0,65.076,29.471,65.076,68.321c0,37.914-24.381,69.002-67.858,69.002
		c-43.458,0-65.057-29.459-65.057-68.328C156.387,388.793,180.757,357.685,224.226,357.685 M221.975,366.108
		c-19.207,0-24.587,25.994-24.587,60.267c0,33.305,8.5,60.197,26.327,60.197c19.206,0,24.577-25.957,24.577-60.197
		C248.291,393.038,239.791,366.108,221.975,366.108z"/>
	<path fill="#1C2D56" d="M545.948,427.539c-0.044-35.931,22.651-69.752,67.468-69.752c36.446,0,53.849,27.021,54.044,62.359h-81.316
		c-0.901,32.076,15.338,55.643,46.426,55.643c13.673,0,21.043-3.391,29.314-9.729l3.805,4.6
		c-9.012,12.488-27.837,24.348-52.826,24.348C573.687,495.008,545.979,467.289,545.948,427.539 M586.437,411.01l40.763-0.846
		c0.206-18.05-2.663-43.845-17.338-43.845C595.101,366.319,586.796,390.7,586.437,411.01z"/>
	<path fill="#1C2D56" d="M770.505,364.788c-9.674-4.447-24.12-7.103-39.283-7.103c-32.705,0-52.544,19.167-52.544,41.527
		c0,23.043,14.936,32.118,35.523,39.458c22.173,7.912,28.021,14.076,28.021,24.314c0,10.566-7.75,20.457-21.643,20.457
		c-16.425,0-28.793-9.643-38.314-36.238l-6.665,1.738l1.177,38.021c10.824,4.381,29.293,8.045,45.934,8.045
		c34.631,0,55.676-16.881,55.676-44.361c0-18.424-8.99-28.51-31.709-37.311c-24.543-9.516-33.042-15.494-33.042-26.87
		c0-11.46,7.554-19.32,18.076-19.32c15.74,0,26.511,9.772,33.587,32.724l6.663-1.712L770.505,364.788"/>
	<path fill="#1C2D56" d="M402.728,361.358c-14.662-8.773-41.403-4.609-54.936,26.532l0.63-30.305l-57.946,11.217v5.234l5.676,0.734
		c8.096,1.134,11.217,5.884,12.173,16.695c1.837,20.734,1.554,57.822,0,75.67c-0.956,10.836-4.077,15.576-12.173,16.695
		l-5.676,0.717v7.35h80.698v-7.35l-10.512-0.717c-8.108-1.119-11.24-5.859-12.195-16.695c-1.435-16.391-1.772-48.988-0.392-70.262
		c3.891-6.445,22.837-11.587,40.447,0.245L402.728,361.358"/>
</g>
</svg>
