<?xml version="1.0" encoding="utf-8"?>
<!-- Generator: Adobe Illustrator 16.0.0, SVG Export Plug-In . SVG Version: 6.00 Build 0)  -->
<svg version="1.2" baseProfile="tiny" id="Layer_1" xmlns="http://www.w3.org/2000/svg" xmlns:xlink="http://www.w3.org/1999/xlink"
	 x="0px" y="0px"   viewBox="0 0 1000 1000" xml:space="preserve">
<g>
	<g>
		<path fill="#0A9600" d="M383.647,485.686v58.535h-21.387v-58.535h-21.606v-18.632h64.599v18.632H383.647z"/>
		<path fill="#0A9600" d="M455.177,520.964h-33.951c0.662,6.393,4.407,9.255,9.81,9.255c5.07,0,9.262-1.103,14.994-4.078
			l7.604,12.679c-7.162,4.187-14.552,6.613-23.588,6.613c-17.419,0-27.008-12.351-27.008-30.099
			c0-19.948,11.241-30.201,26.454-30.201c15.877,0,25.799,10.473,25.799,31.966C455.291,518.758,455.291,519.969,455.177,520.964z
			 M428.942,499.796c-4.52,0-7.055,3.085-7.716,8.817h16.537C436.768,502.771,434.782,499.796,428.942,499.796z"/>
		<path fill="#0A9600" d="M492.094,545.433c-16.973,0-27.116-10.8-27.116-30.313c0-17.75,9.04-29.986,27.557-29.986
			c10.914,0,17.201,5.069,22.27,13.229l-13.67,10.365c-2.754-5.076-4.632-7.499-8.928-7.499c-5.074,0-7.608,5.071-7.608,14.22
			c0,9.154,2.755,13.889,8.157,13.889c3.747,0,6.395-2.093,10.032-7.494l12.565,9.809
			C508.632,541.574,502.347,545.433,492.094,545.433z"/>
		<path fill="#0A9600" d="M559.769,544.221v-32.853c0-7.497-2.536-9.479-6.615-9.479c-4.191,0-6.728,1.982-6.728,9.26v33.072
			h-19.842v-72.425l19.842-7.938v26.345c3.639-2.755,7.718-5.069,14.552-5.069c12.681,0,18.744,8.487,18.744,23.701v35.387H559.769z
			"/>
		<path d="M627.219,545.433c-22.931,0-35.169-16.979-35.169-39.795c0-24.804,14.552-39.796,35.276-39.796
			c18.964,0,26.462,8.157,31.75,22.708l-19.399,7.607c-2.762-7.165-5.403-11.686-12.458-11.686c-8.929,0-12.787,8.929-12.787,21.167
			c0,11.795,3.746,21.165,13.008,21.165c6.722,0,9.591-3.638,13.776-10.915l18.083,9.591
			C654.115,535.623,645.517,545.433,627.219,545.433z"/>
		<path d="M708.109,508.172c-2.536-2.755-5.399-4.85-9.258-4.85c-4.854,0-7.83,2.315-7.83,9.369v31.529H671.18v-57.877h19.842v4.19
			c3.418-3.308,7.276-5.401,12.351-5.401c4.188,0,7.055,0.991,9.369,2.425L708.109,508.172z"/>
		<path d="M755.284,544.221v-3.862c-3.531,2.756-7.72,5.074-14.439,5.074c-12.68,0-18.745-8.486-18.745-23.704v-35.385h19.955
			v32.855c0,7.49,2.534,9.476,6.612,9.476c4.081,0,6.617-1.985,6.617-9.263v-33.068h19.952v57.877H755.284z"/>
		<path d="M822.734,544.221v-32.853c0-7.497-2.534-9.479-6.614-9.479c-4.191,0-6.726,1.982-6.726,9.26v33.072h-19.842v-57.877
			h19.842v3.858c3.636-2.755,7.715-5.069,14.55-5.069c12.68,0,18.743,8.487,18.743,23.701v35.387H822.734z"/>
		<path d="M881.359,545.433c-16.973,0-27.118-10.8-27.118-30.313c0-17.75,9.041-29.986,27.559-29.986
			c10.915,0,17.201,5.069,22.271,13.229l-13.669,10.365c-2.756-5.076-4.634-7.499-8.929-7.499c-5.074,0-7.607,5.071-7.607,14.22
			c0,9.154,2.754,13.889,8.157,13.889c3.745,0,6.393-2.093,10.03-7.494l12.567,9.809
			C897.896,541.574,891.61,545.433,881.359,545.433z"/>
		<path d="M949.032,544.221v-32.853c0-7.497-2.536-9.479-6.614-9.479c-4.191,0-6.726,1.982-6.726,9.26v33.072h-19.842v-72.425
			l19.842-7.938v26.345c3.639-2.755,7.717-5.069,14.552-5.069c12.678,0,18.743,8.487,18.743,23.701v35.387H949.032z"/>
	</g>
	<g>
		<polygon fill="#0A9600" points="31,434 31,479 76,479 76,567 119,567 119,479 164,479 164,434 		"/>
		<polygon fill="#0A9600" points="207,524 207,479 164,479 164,567 295,567 295,524 		"/>
		<rect x="207" y="434" fill="#0A9600" width="88" height="45"/>
	</g>
</g>
</svg>
